<svg width="434" height="341" viewBox="0 0 434 341" fill="none" xmlns="http://www.w3.org/2000/svg">
<g opacity="0.1">
<path d="M434 326L415 326C395.67 326 380 310.33 380 291L380 200C380 180.67 364.33 165 345 165L331 165" stroke="#77CBBD" stroke-width="6"/>
<path d="M434 3L415 3.00003C395.67 3.00006 380 18.6701 380 38L380 130C380 149.33 364.33 165 345 165L331 165" stroke="#77CBBD" stroke-width="6"/>
<path d="M434 110L400 110C388.954 110 380 118.954 380 130V130C380 149.33 364.33 165 345 165L331 165" stroke="#77CBBD" stroke-width="6"/>
<path d="M434 220L400 220C388.954 220 380 211.046 380 200V200C380 180.67 364.33 165 345 165L331 165" stroke="#77CBBD" stroke-width="6"/>
</g>
<rect width="329" height="24" transform="matrix(5.15117e-08 1 1 -3.70923e-08 410 0)" fill="url(#paint0_linear_6557_868)"/>
<g opacity="0.1">
<path d="M0 326L20 326C39.33 326 55 310.33 55 291L55 200C55 180.67 70.67 165 90 165L103 165" stroke="#DCAA70" stroke-width="6"/>
<path d="M0 3L20 3.00003C39.33 3.00006 55 18.6701 55 38L55 130C55 149.33 70.67 165 90 165L103 165" stroke="#DCAA70" stroke-width="6"/>
<path d="M0 83L35 83.0001C46.0457 83.0001 55 91.9544 55 103L55 130C55 149.33 70.67 165 90 165L103 165" stroke="#DCAA70" stroke-width="6"/>
<path d="M0 246L35 246C46.0457 246 55 237.046 55 226L55 200C55 180.67 70.67 165 90 165L103 165" stroke="#DCAA70" stroke-width="6"/>
<path d="M0 165L102 165" stroke="#DCAA70" stroke-width="6"/>
</g>
<rect x="24" width="329" height="24" transform="rotate(90 24 0)" fill="url(#paint1_linear_6557_868)"/>
<g filter="url(#filter0_d_6557_868)">
<path d="M103 105C103 71.8629 129.863 45 163 45H271C304.137 45 331 71.8629 331 105V213C331 246.137 304.137 273 271 273H163C129.863 273 103 246.137 103 213V105Z" fill="#090E35"/>
<g clip-path="url(#clip0_6557_868)">
<g clip-path="url(#clip1_6557_868)">
<path fill-rule="evenodd" clip-rule="evenodd" d="M224.946 152.602C226.739 154.421 227.711 156.799 227.856 159.733C227.904 160.848 227.928 161.819 227.928 162.643C227.928 163.734 227.904 164.935 227.856 166.246C227.711 169.156 226.739 171.522 224.946 173.339C223.148 175.158 220.553 176.07 217.158 176.07C213.763 176.07 211.168 175.158 209.373 173.339C207.578 171.522 206.608 169.156 206.462 166.246C206.412 164.935 206.389 163.734 206.389 162.643C206.389 161.819 206.412 160.848 206.462 159.733C206.608 156.822 207.578 154.451 209.373 152.62C211.168 150.788 213.763 149.873 217.158 149.873C220.553 149.873 223.148 150.783 224.946 152.602ZM213.067 155.875C212.034 156.846 211.471 158.193 211.374 159.915C211.325 161.127 211.302 162.146 211.302 162.97C211.302 163.82 211.325 164.851 211.374 166.064C211.471 167.786 212.034 169.126 213.067 170.083C214.096 171.043 215.461 171.522 217.158 171.522C218.856 171.522 220.22 171.043 221.251 170.083C222.283 169.126 222.845 167.786 222.943 166.064C222.993 165.458 223.017 164.427 223.017 162.97C223.017 161.54 222.993 160.521 222.943 159.915C222.845 158.193 222.283 156.846 221.251 155.875C220.22 154.906 218.856 154.421 217.158 154.421C215.461 154.421 214.096 154.906 213.067 155.875Z" fill="white"/>
<path fill-rule="evenodd" clip-rule="evenodd" d="M267.912 162.97C267.912 164.159 267.886 165.057 267.838 165.663C267.645 168.841 266.661 171.308 264.892 173.068C263.121 174.825 260.537 175.705 257.142 175.705H248.771C248.504 175.705 248.274 175.609 248.079 175.414C247.885 175.22 247.789 174.989 247.789 174.723V151.219C247.789 150.952 247.885 150.722 248.079 150.527C248.274 150.334 248.504 150.236 248.771 150.236H256.959C260.428 150.236 263.059 151.116 264.854 152.875C266.65 154.634 267.645 157.102 267.838 160.279C267.886 160.884 267.912 161.783 267.912 162.97ZM252.701 154.784V171.157H256.959C258.876 171.157 260.326 170.66 261.307 169.664C262.291 168.671 262.829 167.337 262.927 165.663C262.975 165.057 262.999 164.159 262.999 162.97C262.999 161.783 262.975 160.884 262.927 160.279C262.829 158.606 262.277 157.271 261.271 156.276C260.264 155.283 258.767 154.784 256.777 154.784H252.701Z" fill="white"/>
<path fill-rule="evenodd" clip-rule="evenodd" d="M157.896 174.468L148.984 151.475C148.838 151.037 148.663 150.723 148.457 150.527C148.25 150.333 147.965 150.235 147.602 150.235H143.6C143.235 150.235 142.95 150.333 142.745 150.527C142.537 150.723 142.362 151.037 142.216 151.475L133.304 174.468L133.266 174.723C133.266 174.988 133.363 175.22 133.557 175.413C133.752 175.609 133.982 175.704 134.249 175.704H136.868C137.596 175.704 138.069 175.401 138.288 174.795L145.601 155.839L152.914 174.795C153.131 175.401 153.604 175.704 154.332 175.704H156.951C157.218 175.704 157.45 175.609 157.643 175.413C157.837 175.22 157.934 174.988 157.934 174.723L157.896 174.468Z" fill="white"/>
<path fill-rule="evenodd" clip-rule="evenodd" d="M180.178 151.219V166.136C180.178 169.192 179.28 171.611 177.485 173.395C175.689 175.178 173.106 176.07 169.735 176.07C166.338 176.07 163.755 175.184 161.986 173.413C160.214 171.641 159.331 169.216 159.331 166.136V151.219C159.331 150.952 159.426 150.722 159.62 150.527C159.815 150.334 160.045 150.236 160.312 150.236H163.26C163.526 150.236 163.755 150.334 163.951 150.527C164.144 150.722 164.242 150.952 164.242 151.219V165.955C164.242 167.869 164.726 169.277 165.696 170.175C166.667 171.073 168.014 171.522 169.735 171.522C171.457 171.522 172.815 171.073 173.811 170.175C174.804 169.277 175.302 167.869 175.302 165.955V151.219C175.302 150.952 175.398 150.722 175.594 150.527C175.787 150.334 176.017 150.236 176.284 150.236H179.194C179.462 150.236 179.693 150.334 179.886 150.527C180.08 150.722 180.178 150.952 180.178 151.219Z" fill="white"/>
<path fill-rule="evenodd" clip-rule="evenodd" d="M204.326 150.527C204.519 150.722 204.617 150.952 204.617 151.219V153.802C204.617 154.07 204.519 154.299 204.326 154.495C204.132 154.688 203.901 154.784 203.636 154.784H197.085V174.723C197.085 174.991 196.989 175.22 196.794 175.414C196.6 175.609 196.371 175.705 196.103 175.705H193.157C192.89 175.705 192.658 175.609 192.465 175.414C192.271 175.22 192.174 174.991 192.174 174.723V154.784H185.625C185.358 154.784 185.129 154.688 184.935 154.495C184.739 154.299 184.642 154.07 184.642 153.802V151.219C184.642 150.952 184.739 150.722 184.935 150.527C185.129 150.334 185.358 150.236 185.625 150.236H203.636C203.901 150.236 204.132 150.334 204.326 150.527Z" fill="white"/>
<path fill-rule="evenodd" clip-rule="evenodd" d="M290.179 157.347C289.986 157.528 289.742 157.618 289.451 157.618H286.904C286.517 157.618 286.214 157.546 285.995 157.401C285.777 157.255 285.581 157.036 285.414 156.747C285.001 156.067 284.406 155.52 283.631 155.109C282.855 154.696 282.228 154.491 280.894 154.491C279.585 154.491 278.696 154.758 277.798 155.29C276.903 155.825 276.454 156.539 276.454 157.437C276.454 158.165 276.665 158.73 277.09 159.128C277.512 159.529 278.175 159.863 279.072 160.13C279.968 160.397 281.008 160.748 283.044 161.185C285.979 161.815 288.103 162.701 289.413 163.84C290.722 164.981 291.376 166.545 291.376 168.534C291.376 169.99 290.951 171.294 290.104 172.446C289.254 173.598 288.035 174.5 286.447 175.156C284.858 175.81 283.212 176.137 281.075 176.137C279.256 176.137 277.989 175.846 276.414 175.264C274.836 174.684 273.564 173.852 272.594 172.773C271.622 171.694 271.102 170.463 271.028 169.08C271.004 168.789 271.088 168.551 271.283 168.37C271.477 168.189 271.72 168.097 272.011 168.097H274.558C274.945 168.097 275.255 168.171 275.484 168.316C275.715 168.462 275.905 168.679 276.049 168.97C276.462 169.771 277.062 170.407 277.85 170.879C278.638 171.354 279.428 171.589 281.075 171.589C282.677 171.589 283.796 171.336 284.865 170.826C285.93 170.317 286.465 169.553 286.465 168.534C286.465 167.951 286.26 167.484 285.847 167.133C285.434 166.782 284.851 166.491 284.101 166.26C283.35 166.03 282.424 165.733 280.894 165.368C280.29 165.248 279.715 165.065 278.745 164.823C276.198 164.193 274.361 163.332 273.232 162.24C272.105 161.147 271.541 159.547 271.541 157.437C271.541 156.006 271.959 154.72 272.795 153.581C273.633 152.44 274.778 151.548 276.234 150.906C277.689 150.264 279.101 149.943 280.894 149.943C282.933 149.943 284.267 150.288 285.759 150.98C287.251 151.67 288.384 152.538 289.16 153.581C289.936 154.625 290.361 155.641 290.435 156.637C290.456 156.928 290.373 157.163 290.179 157.347Z" fill="white"/>
<path fill-rule="evenodd" clip-rule="evenodd" d="M244.095 161.203C244.29 161.396 244.386 161.626 244.386 161.893V164.841C244.386 165.109 244.29 165.338 244.095 165.532C243.902 165.725 243.672 165.823 243.405 165.823H232.308C232.041 165.823 231.809 165.725 231.616 165.532C231.422 165.338 231.325 165.109 231.325 164.841V161.893C231.325 161.626 231.422 161.396 231.616 161.203C231.809 161.009 232.041 160.912 232.308 160.912H243.405C243.672 160.912 243.902 161.009 244.095 161.203Z" fill="#CE945B"/>
<path fill-rule="evenodd" clip-rule="evenodd" d="M223.398 141.85C223.593 142.043 223.689 142.273 223.689 142.54V145.488C223.689 145.756 223.593 145.985 223.398 146.179C223.204 146.374 222.975 146.47 222.707 146.47H211.61C211.344 146.47 211.112 146.374 210.918 146.179C210.725 145.985 210.627 145.756 210.627 145.488V142.54C210.627 142.273 210.725 142.043 210.918 141.85C211.112 141.656 211.344 141.559 211.61 141.559H222.707C222.975 141.559 223.204 141.656 223.398 141.85Z" fill="#A4D3CB"/>
<path fill-rule="evenodd" clip-rule="evenodd" d="M307.549 161.538C307.743 161.731 307.841 161.963 307.841 162.23V165.176C307.841 165.444 307.743 165.675 307.549 165.868C307.356 166.062 307.125 166.16 306.859 166.16H295.761C295.495 166.16 295.264 166.062 295.07 165.868C294.875 165.675 294.779 165.444 294.779 165.176V162.23C294.779 161.963 294.875 161.731 295.07 161.538C295.264 161.344 295.495 161.247 295.761 161.247H306.859C307.125 161.247 307.356 161.344 307.549 161.538Z" fill="#CECBA2"/>
<path fill-rule="evenodd" clip-rule="evenodd" d="M287.441 179.832C287.634 180.025 287.732 180.255 287.732 180.522V183.468C287.732 183.736 287.634 183.967 287.441 184.16C287.247 184.354 287.016 184.452 286.75 184.452H275.652C275.386 184.452 275.155 184.354 274.961 184.16C274.766 183.967 274.67 183.736 274.67 183.468V180.522C274.67 180.255 274.766 180.025 274.961 179.832C275.155 179.636 275.386 179.541 275.652 179.541H286.75C287.016 179.541 287.247 179.636 287.441 179.832Z" fill="#E2B3B1"/>
<path fill-rule="evenodd" clip-rule="evenodd" d="M175.993 179.832C176.188 180.025 176.284 180.255 176.284 180.522V183.468C176.284 183.736 176.188 183.967 175.993 184.16C175.799 184.354 175.57 184.452 175.302 184.452H164.206C163.938 184.452 163.707 184.354 163.513 184.16C163.32 183.967 163.222 183.736 163.222 183.468V180.522C163.222 180.255 163.32 180.025 163.513 179.832C163.707 179.636 163.938 179.541 164.206 179.541H175.302C175.57 179.541 175.799 179.636 175.993 179.832Z" fill="#A4D3CB"/>
<path fill-rule="evenodd" clip-rule="evenodd" d="M184.044 158.961C184.239 159.156 184.335 159.385 184.335 159.653V162.599C184.335 162.867 184.239 163.098 184.044 163.291C183.85 163.485 183.619 163.583 183.353 163.583H172.255C171.989 163.583 171.758 163.485 171.564 163.291C171.371 163.098 171.273 162.867 171.273 162.599V159.653C171.273 159.385 171.371 159.156 171.564 158.961C171.758 158.767 171.989 158.671 172.255 158.671H183.353C183.619 158.671 183.85 158.767 184.044 158.961Z" fill="#E2B3B1"/>
<path fill-rule="evenodd" clip-rule="evenodd" d="M197.085 163.702V174.801C197.085 175.066 196.989 175.298 196.794 175.491C196.6 175.687 196.371 175.782 196.104 175.782H193.157C192.89 175.782 192.659 175.687 192.465 175.491C192.272 175.298 192.174 175.066 192.174 174.801V163.702H197.085Z" fill="#CECBA2"/>
<path fill-rule="evenodd" clip-rule="evenodd" d="M251.717 150.236H250.109H248.771C248.503 150.236 248.274 150.332 248.078 150.527C247.885 150.721 247.789 150.952 247.789 151.218V162.316H252.7V153.035V151.218V150.236H251.717Z" fill="#A4D3CB"/>
<path fill-rule="evenodd" clip-rule="evenodd" d="M151.84 163.838C152.034 164.031 152.13 164.263 152.13 164.53V167.115C152.13 167.383 152.034 167.614 151.84 167.808C151.647 168.001 151.415 168.099 151.148 168.099H140.051C139.786 168.099 139.554 168.001 139.361 167.808C139.166 167.614 139.07 167.383 139.07 167.115V164.53C139.07 164.263 139.166 164.031 139.361 163.838C139.554 163.645 139.786 163.547 140.051 163.547H151.148C151.415 163.547 151.647 163.645 151.84 163.838Z" fill="#CE945B"/>
</g>
</g>
</g>
<defs>
<filter id="filter0_d_6557_868" x="58.2941" y="22.6471" width="317.412" height="317.412" filterUnits="userSpaceOnUse" color-interpolation-filters="sRGB">
<feFlood flood-opacity="0" result="BackgroundImageFix"/>
<feColorMatrix in="SourceAlpha" type="matrix" values="0 0 0 0 0 0 0 0 0 0 0 0 0 0 0 0 0 0 127 0" result="hardAlpha"/>
<feOffset dy="22.3529"/>
<feGaussianBlur stdDeviation="22.3529"/>
<feComposite in2="hardAlpha" operator="out"/>
<feColorMatrix type="matrix" values="0 0 0 0 0 0 0 0 0 0 0 0 0 0 0 0 0 0 0.12 0"/>
<feBlend mode="normal" in2="BackgroundImageFix" result="effect1_dropShadow_6557_868"/>
<feBlend mode="normal" in="SourceGraphic" in2="effect1_dropShadow_6557_868" result="shape"/>
</filter>
<linearGradient id="paint0_linear_6557_868" x1="168.089" y1="24" x2="168.089" y2="5.84828e-07" gradientUnits="userSpaceOnUse">
<stop stop-color="white"/>
<stop offset="1" stop-color="white" stop-opacity="0"/>
</linearGradient>
<linearGradient id="paint1_linear_6557_868" x1="192.089" y1="24" x2="192.089" y2="5.84828e-07" gradientUnits="userSpaceOnUse">
<stop stop-color="white"/>
<stop offset="1" stop-color="white" stop-opacity="0"/>
</linearGradient>
<clipPath id="clip0_6557_868">
<rect width="174.823" height="43.7058" fill="white" transform="translate(133.177 141)"/>
</clipPath>
<clipPath id="clip1_6557_868">
<rect width="174.823" height="43.0631" fill="white" transform="translate(133.177 141.643)"/>
</clipPath>
</defs>
</svg>
